HIERARCHY
ROOT root
{
  OFFSET 0 93.2929 0
  CHANNELS 6 Xposition Yposition Zposition Zrotation Xrotation Yrotation
  JOINT torso_1
  {
    OFFSET 0 5.07867 -1.15138
    CHANNELS 6 Xposition Yposition Zposition Zrotation Xrotation Yrotation
    JOINT torso_2
    {
      OFFSET 0 5.61661 1.07143
      CHANNELS 6 Xposition Yposition Zposition Zrotation Xrotation Yrotation
      JOINT torso_3
      {
        OFFSET -1.02604e-17 5.98978 0.11501
        CHANNELS 6 Xposition Yposition Zposition Zrotation Xrotation Yrotation
        JOINT torso_4
        {
          OFFSET -1.10457e-17 6.50583 -0.443523
          CHANNELS 6 Xposition Yposition Zposition Zrotation Xrotation Yrotation
          JOINT torso_5
          {
            OFFSET -1.97295e-17 7.60548 -1.50593
            CHANNELS 6 Xposition Yposition Zposition Zrotation Xrotation Yrotation
            JOINT torso_6
            {
              OFFSET -2.53307e-17 9.49737 -0.914492
              CHANNELS 6 Xposition Yposition Zposition Zrotation Xrotation Yrotation
              JOINT torso_7
              {
                OFFSET -2.90401e-17 10.5513 1.57691
                CHANNELS 6 Xposition Yposition Zposition Zrotation Xrotation Yrotation
                JOINT neck_1
                {
                  OFFSET -1.29193e-17 4.78644 0.715339
                  CHANNELS 6 Xposition Yposition Zposition Zrotation Xrotation Yrotation
                  JOINT neck_2
                  {
                    OFFSET -1.8116e-17 4.82109 0.421791
                    CHANNELS 6 Xposition Yposition Zposition Zrotation Xrotation Yrotation
                    JOINT head
                    {
                      OFFSET -2.00958e-17 4.83041 0.765062
                      CHANNELS 6 Xposition Yposition Zposition Zrotation Xrotation Yrotation
                      End Site
                      {
                        OFFSET 0 0.1 0
                      }
                    }
                  }
                }
                JOINT l_shoulder
                {
                  OFFSET 1.23299 -7.60731 7.53374
                  CHANNELS 6 Xposition Yposition Zposition Zrotation Xrotation Yrotation
                  JOINT l_up_arm
                  {
                    OFFSET 12.9547 3.2495 -3.26872
                    CHANNELS 6 Xposition Yposition Zposition Zrotation Xrotation Yrotation
                    JOINT l_low_arm
                    {
                      OFFSET 29.2081 0.0598081 0.137039
                      CHANNELS 6 Xposition Yposition Zposition Zrotation Xrotation Yrotation
                      JOINT l_hand
                      {
                        OFFSET 24.234 0.0496219 0.113701
                        CHANNELS 6 Xposition Yposition Zposition Zrotation Xrotation Yrotation
                        End Site
                        {
                          OFFSET 0.1 0 0
                        }
                      }
                    }
                  }
                }
                JOINT r_shoulder
                {
                  OFFSET -1.23299 -7.60729 7.53365
                  CHANNELS 6 Xposition Yposition Zposition Zrotation Xrotation Yrotation
                  JOINT r_up_arm
                  {
                    OFFSET -12.9547 3.2495 -3.26872
                    CHANNELS 6 Xposition Yposition Zposition Zrotation Xrotation Yrotation
                    JOINT r_low_arm
                    {
                      OFFSET -29.2081 0.0598081 0.137039
                      CHANNELS 6 Xposition Yposition Zposition Zrotation Xrotation Yrotation
                      JOINT r_hand
                      {
                        OFFSET -24.234 0.0496218 0.113702
                        CHANNELS 6 Xposition Yposition Zposition Zrotation Xrotation Yrotation
                        End Site
                        {
                          OFFSET -0.1 0 0
                        }
                      }
                    }
                  }
                }
              }
            }
          }
        }
      }
    }
  }
  JOINT l_up_leg
  {
    OFFSET 9.23673 -4.20556 2.0327
    CHANNELS 6 Xposition Yposition Zposition Zrotation Xrotation Yrotation
    JOINT l_low_leg
    {
      OFFSET -0.852353 -38.7721 -0.655187
      CHANNELS 6 Xposition Yposition Zposition Zrotation Xrotation Yrotation
      JOINT l_foot
      {
        OFFSET -2.32622 -40.4017 -6.04875
        CHANNELS 6 Xposition Yposition Zposition Zrotation Xrotation Yrotation
        JOINT l_toes
        {
          OFFSET 0.779096 -9.8844 12.4959
          CHANNELS 6 Xposition Yposition Zposition Zrotation Xrotation Yrotation
          End Site
          {
            OFFSET 0 0 0.1
          }
        }
      }
    }
  }
  JOINT r_up_leg
  {
    OFFSET -9.23673 -4.20556 2.0327
    CHANNELS 6 Xposition Yposition Zposition Zrotation Xrotation Yrotation
    JOINT r_low_leg
    {
      OFFSET 0.852353 -38.7721 -0.655187
      CHANNELS 6 Xposition Yposition Zposition Zrotation Xrotation Yrotation
      JOINT r_foot
      {
        OFFSET 2.32622 -40.4017 -6.04875
        CHANNELS 6 Xposition Yposition Zposition Zrotation Xrotation Yrotation
        JOINT r_toes
        {
          OFFSET -0.779096 -9.8844 12.4959
          CHANNELS 6 Xposition Yposition Zposition Zrotation Xrotation Yrotation
          End Site
          {
            OFFSET 0 0 0.1
          }
        }
      }
    }
  }
}
MOTION
Frames: 7
Frame Time: 0.016667
0 93.2929 0 -0 0 -0 0 5.07867 -1.15138 -0 0 -0 0 5.61661 1.07143 -0 0 -0 -1.02604e-17 5.98978 0.11501 -0 0 -0 -1.10457e-17 6.50583 -0.443523 -0 0 -0 -1.97295e-17 7.60548 -1.50593 -0 0 -0 -2.53307e-17 9.49737 -0.914492 -0 0 -0 -2.90401e-17 10.5513 1.57691 -0 0 -0 -1.29193e-17 4.78644 0.715339 -0 0 -0 -1.8116e-17 4.82109 0.421791 -0 0 -0 -2.00958e-17 4.83041 0.765062 -0 0 -0 1.23299 -7.60731 7.53374 -0 0 -0 12.9547 3.2495 -3.26872 -0 0 -0 29.2081 0.0598081 0.137039 -0 0 -0 24.234 0.0496219 0.113701 -0 0 -0 -1.23299 -7.60729 7.53365 -0 0 -0 -12.9547 3.2495 -3.26872 -0 0 -0 -29.2081 0.0598081 0.137039 -0 0 -0 -24.234 0.0496218 0.113702 -0 0 -0 9.23673 -4.20556 2.0327 -0 0 -0 -0.852353 -38.7721 -0.655187 -0 0 -0 -2.32622 -40.4017 -6.04875 -0 0 -0 0.779096 -9.8844 12.4959 -0 0 -0 -9.23673 -4.20556 2.0327 -0 0 -0 0.852353 -38.7721 -0.655187 -0 0 -0 2.32622 -40.4017 -6.04875 -0 0 -0 -0.779096 -9.8844 12.4959 -0 0 -0 
-20.0781 92.7888 74.8588 1.13951 -0.864346 0.134121 0 5.07867 -1.15138 -1.84252 1.56217 -0.169298 0 5.61661 1.07143 -1.33009 1.65074 -0.44263 -1.02604e-17 5.98978 0.11501 -0.904326 1.98575 -0.3526 -1.10457e-17 6.50583 -0.443523 -0.513512 2.25495 -0.329898 -1.97295e-17 7.60548 -1.50593 -0.129925 1.82869 -0.308423 -2.53307e-17 9.49737 -0.914492 0.254833 1.72019 -0.596409 -2.90401e-17 10.5513 1.57691 -0.0433522 0.794035 0.042674 -1.29193e-17 4.78644 0.715339 0.0459633 0.208687 -1.93075 -1.8116e-17 4.82109 0.421791 -0.130489 -4.24645 -1.03371 -2.00958e-17 4.83041 0.765062 -1.04173 -3.99356 2.14418 1.23299 -7.60731 7.53374 -0.850311 2.65156 -1.28822 12.9547 3.2495 -3.26872 -79.7808 18.2586 -7.82594 29.2081 0.0598081 0.137039 2.05935 -0.168998 -9.97173 24.234 0.0496219 0.113701 1.58242 -15.2596 -3.82741 -1.23299 -7.60729 7.53365 4.27796 3.92546 1.72132 -12.9547 3.2495 -3.26872 77.1538 12.002 1.88415 -29.2081 0.0598081 0.137039 -1.67698 -0.110034 8.10642 -24.234 0.0496218 0.113702 -0.00891035 -7.25592 4.28459 9.23673 -4.20556 2.0327 -1.15454 1.2606 -3.7512 -0.852353 -38.7721 -0.655187 0.257354 -0.959657 0.0189073 -2.32622 -40.4017 -6.04875 0.704476 -1.15468 15.1044 0.779096 -9.8844 12.4959 3.50123e-19 -7.95904e-16 1.31896e-17 -9.23673 -4.20556 2.0327 -2.27464 -3.64715 16.6071 0.852353 -38.7721 -0.655187 0.794762 2.96826 0.0312279 2.32622 -40.4017 -6.04875 -1.61954 -1.49335 -15.0477 -0.779096 -9.8844 12.4959 -5.96354e-16 -5.59082e-16 -1.27471e-14 
-20.0849 92.7877 74.8642 1.14523 -0.875146 0.149776 0 5.07867 -1.15138 -1.83356 1.55349 -0.17016 0 5.61661 1.07143 -1.32323 1.64499 -0.442189 -1.02604e-17 5.98978 0.11501 -0.899612 1.98272 -0.351943 -1.10457e-17 6.50583 -0.443523 -0.510962 2.25728 -0.328992 -1.97295e-17 7.60548 -1.50593 -0.129616 1.83402 -0.307956 -2.53307e-17 9.49737 -0.914492 0.252891 1.72728 -0.595473 -2.90401e-17 10.5513 1.57691 -0.0437954 0.793371 0.0424359 -1.29193e-17 4.78644 0.715339 0.0420763 0.152256 -1.93728 -1.8116e-17 4.82109 0.421791 -0.131508 -4.26519 -1.037 -2.00958e-17 4.83041 0.765062 -1.01938 -3.98503 2.13058 1.23299 -7.60731 7.53374 -0.886653 2.66117 -1.31536 12.9547 3.2495 -3.26872 -79.7403 18.2471 -7.85353 29.2081 0.0598081 0.137039 2.04942 -0.167309 -9.92318 24.234 0.0496219 0.113701 1.5727 -15.2317 -3.81617 -1.23299 -7.60729 7.53365 4.27689 3.92787 1.72858 -12.9547 3.2495 -3.26872 77.0963 12.1427 1.86855 -29.2081 0.0598081 0.137039 -1.67908 -0.110322 8.11664 -24.234 0.0496218 0.113702 0.141903 -7.84885 4.41027 9.23673 -4.20556 2.0327 -1.15378 1.28342 -3.78164 -0.852353 -38.7721 -0.655187 0.262409 -0.978492 0.0193216 -2.32622 -40.4017 -6.04875 0.691263 -1.15201 15.1058 0.779096 -9.8844 12.4959 -3.30958e-16 -8.06258e-16 2.3543e-17 -9.23673 -4.20556 2.0327 -2.27735 -3.60715 16.5947 0.852353 -38.7721 -0.655187 0.784583 2.93025 0.0310882 2.32622 -40.4017 -6.04875 -1.65818 -1.48721 -15.0436 -0.779096 -9.8844 12.4959 -5.96354e-16 -5.59082e-16 -1.27471e-14 
-20.0953 92.7881 74.8715 1.1574 -0.872167 0.17372 0 5.07867 -1.15138 -1.82056 1.54848 -0.172508 0 5.61661 1.07143 -1.31338 1.6412 -0.442857 -1.02604e-17 5.98978 0.11501 -0.893135 1.97986 -0.352432 -1.10457e-17 6.50583 -0.443523 -0.507901 2.25667 -0.329397 -1.97295e-17 7.60548 -1.50593 -0.130264 1.8358 -0.30901 -2.53307e-17 9.49737 -0.914492 0.248234 1.73062 -0.595652 -2.90401e-17 10.5513 1.57691 -0.0446904 0.793206 0.0415668 -1.29193e-17 4.78644 0.715339 0.0366432 0.0976316 -1.94344 -1.8116e-17 4.82109 0.421791 -0.14373 -4.26718 -1.04045 -2.00958e-17 4.83041 0.765062 -1.00567 -3.96712 2.11566 1.23299 -7.60731 7.53374 -0.949065 2.68459 -1.36247 12.9547 3.2495 -3.26872 -79.679 18.2487 -7.86024 29.2081 0.0598081 0.137039 2.04268 -0.166168 -9.89026 24.234 0.0496219 0.113701 1.57584 -15.2477 -3.82393 -1.23299 -7.60729 7.53365 4.27362 3.93386 1.74103 -12.9547 3.2495 -3.26872 77.0461 12.413 1.82982 -29.2081 0.0598081 0.137039 -1.69273 -0.112205 8.18303 -24.234 0.0496218 0.113702 0.321721 -8.71921 4.58867 9.23673 -4.20556 2.0327 -1.15833 1.30367 -3.83246 -0.852353 -38.7721 -0.655187 0.273021 -1.01803 0.0201967 -2.32622 -40.4017 -6.04875 0.672053 -1.13501 15.1065 0.779096 -9.8844 12.4959 2.0636e-16 -7.89466e-16 6.75179e-18 -9.23673 -4.20556 2.0327 -2.2853 -3.57276 16.601 0.852353 -38.7721 -0.655187 0.771474 2.88129 0.0308982 2.32622 -40.4017 -6.04875 -1.68308 -1.4834 -15.0431 -0.779096 -9.8844 12.4959 -5.96354e-16 -5.59082e-16 -1.27471e-14 
-20.1114 92.7889 74.8791 1.16663 -0.85992 0.18831 0 5.07867 -1.15138 -1.8034 1.53969 -0.174409 0 5.61661 1.07143 -1.30056 1.63463 -0.442421 -1.02604e-17 5.98978 0.11501 -0.884556 1.97488 -0.351832 -1.10457e-17 6.50583 -0.443523 -0.503524 2.25541 -0.32869 -1.97295e-17 7.60548 -1.50593 -0.130223 1.83921 -0.30907 -2.53307e-17 9.49737 -0.914492 0.243547 1.7362 -0.594941 -2.90401e-17 10.5513 1.57691 -0.0456436 0.792815 0.0404569 -1.29193e-17 4.78644 0.715339 0.0299278 0.0400779 -1.95662 -1.8116e-17 4.82109 0.421791 -0.152822 -4.25609 -1.04723 -2.00958e-17 4.83041 0.765062 -1.00081 -3.93543 2.10938 1.23299 -7.60731 7.53374 -1.01999 2.70746 -1.40779 12.9547 3.2495 -3.26872 -79.5979 18.2557 -7.86783 29.2081 0.0598081 0.137039 2.03854 -0.165469 -9.87003 24.234 0.0496219 0.113701 1.57582 -15.2855 -3.82612 -1.23299 -7.60729 7.53365 4.26711 3.93263 1.74852 -12.9547 3.2495 -3.26872 77.006 12.7031 1.78805 -29.2081 0.0598081 0.137039 -1.71974 -0.115979 8.31446 -24.234 0.0496218 0.113702 0.50069 -9.60683 4.74779 9.23673 -4.20556 2.0327 -1.15476 1.30784 -3.88098 -0.852353 -38.7721 -0.655187 0.279709 -1.04295 0.020752 -2.32622 -40.4017 -6.04875 0.652785 -1.12403 15.1081 0.779096 -9.8844 12.4959 -2.41384e-17 -7.96669e-16 1.39549e-17 -9.23673 -4.20556 2.0327 -2.28654 -3.55428 16.6237 0.852353 -38.7721 -0.655187 0.760663 2.84091 0.0307332 2.32622 -40.4017 -6.04875 -1.70521 -1.47861 -15.0422 -0.779096 -9.8844 12.4959 -5.96354e-16 -5.59082e-16 -1.27471e-14 
-20.1306 92.7906 74.8864 1.17466 -0.844139 0.205236 0 5.07867 -1.15138 -1.78511 1.52672 -0.176602 0 5.61661 1.07143 -1.28689 1.62506 -0.44193 -1.02604e-17 5.98978 0.11501 -0.87522 1.96813 -0.351174 -1.10457e-17 6.50583 -0.443523 -0.498344 2.25446 -0.327918 -1.97295e-17 7.60548 -1.50593 -0.129453 1.8452 -0.309081 -2.53307e-17 9.49737 -0.914492 0.239392 1.74513 -0.59447 -2.90401e-17 10.5513 1.57691 -0.0464353 0.792146 0.0392384 -1.29193e-17 4.78644 0.715339 0.0232611 -0.0193689 -1.96964 -1.8116e-17 4.82109 0.421791 -0.160052 -4.23602 -1.05406 -2.00958e-17 4.83041 0.765062 -0.998089 -3.89043 2.10309 1.23299 -7.60731 7.53374 -1.0906 2.72757 -1.44685 12.9547 3.2495 -3.26872 -79.5108 18.2713 -7.87723 29.2081 0.0598081 0.137039 2.03764 -0.165316 -9.86561 24.234 0.0496219 0.113701 1.57861 -15.3313 -3.80648 -1.23299 -7.60729 7.53365 4.26425 3.92339 1.75521 -12.9547 3.2495 -3.26872 76.9728 12.9566 1.75445 -29.2081 0.0598081 0.137039 -1.75796 -0.121427 8.50051 -24.234 0.0496218 0.113702 0.64808 -10.373 4.85185 9.23673 -4.20556 2.0327 -1.1467 1.29989 -3.92981 -0.852353 -38.7721 -0.655187 0.2826 -1.05372 0.0209928 -2.32622 -40.4017 -6.04875 0.63174 -1.11556 15.1106 0.779096 -9.8844 12.4959 -3.72721e-16 -8.07563e-16 2.48481e-17 -9.23673 -4.20556 2.0327 -2.28691 -3.54283 16.6395 0.852353 -38.7721 -0.655187 0.751344 2.8061 0.0305848 2.32622 -40.4017 -6.04875 -1.71089 -1.47674 -15.042 -0.779096 -9.8844 12.4959 -5.96354e-16 -5.59082e-16 -1.27471e-14 
-20.1406 92.7869 74.8786 1.18613 -0.827339 0.227344 0 5.07867 -1.15138 -1.766 1.52619 -0.179289 0 5.61661 1.07143 -1.27234 1.62309 -0.441794 -1.02604e-17 5.98978 0.11501 -0.864946 1.96391 -0.350764 -1.10457e-17 6.50583 -0.443523 -0.492015 2.24791 -0.327417 -1.97295e-17 7.60548 -1.50593 -0.127384 1.84083 -0.309434 -2.53307e-17 9.49737 -0.914492 0.236468 1.73975 -0.594737 -2.90401e-17 10.5513 1.57691 -0.0468465 0.792722 0.0382823 -1.29193e-17 4.78644 0.715339 0.0182678 -0.0759911 -1.9802 -1.8116e-17 4.82109 0.421791 -0.166574 -4.21224 -1.05986 -2.00958e-17 4.83041 0.765062 -1.00556 -3.83745 2.08944 1.23299 -7.60731 7.53374 -1.14388 2.75196 -1.4788 12.9547 3.2495 -3.26872 -79.4431 18.3158 -7.88782 29.2081 0.0598081 0.137039 2.0397 -0.165665 -9.8757 24.234 0.0496219 0.113701 1.58774 -15.395 -3.76962 -1.23299 -7.60729 7.53365 4.25626 3.91577 1.76561 -12.9547 3.2495 -3.26872 76.9444 13.1305 1.73925 -29.2081 0.0598081 0.137039 -1.80201 -0.127863 8.71501 -24.234 0.0496218 0.113702 0.732995 -10.895 4.88872 9.23673 -4.20556 2.0327 -1.14617 1.27005 -3.98231 -0.852353 -38.7721 -0.655187 0.279641 -1.04269 0.0207463 -2.32622 -40.4017 -6.04875 0.61872 -1.12823 15.1131 0.779096 -9.8844 12.4959 -2.81966e-16 -8.04727e-16 2.2012e-17 -9.23673 -4.20556 2.0327 -2.29857 -3.5503 16.6366 0.852353 -38.7721 -0.655187 0.746923 2.78959 0.0305124 2.32622 -40.4017 -6.04875 -1.70766 -1.50031 -15.044 -0.779096 -9.8844 12.4959 -5.96354e-16 -5.59082e-16 -1.27471e-14 
